<svg preserveAspectRatio="xMidYMid meet" data-bbox="69.727 36.528 58.422 128.944" xmlns="http://www.w3.org/2000/svg" width="200" height="200" viewBox="69.727 36.528 58.422 128.944" data-type="color" role="presentation" aria-hidden="true" aria-label=""><defs><style>#comp-kbjbk78q svg [data-color="1"] {fill: #FBE690;}
#comp-kbjbk78q svg [data-color="2"] {fill: #000000;}</style></defs>
    <g>
        <path fill="#FBE690" d="M104.405 60.634c-13.114 0-23.744 10.631-23.744 23.744v47.527a7.341 7.341 0 007.341 7.341h8.362v7.375c0 4.434 3.608 8.041 8.041 8.041 4.434 0 8.041-3.608 8.041-8.041v-7.375h8.362a7.341 7.341 0 007.341-7.341V84.378c0-13.113-10.631-23.744-23.744-23.744z" data-color="1"></path>
        <path d="M112.69 44.813a8.285 8.285 0 11-16.57 0 8.285 8.285 0 0116.57 0z" fill="#FBE690" data-color="1"></path>
        <path fill="#000010" d="M95.596 165.472c-5.537 0-10.042-4.505-10.042-10.042v-14.738c0-5.537 4.505-10.042 10.042-10.042s10.041 4.505 10.041 10.042v14.738c0 5.537-4.504 10.042-10.041 10.042zm0-30.823a6.048 6.048 0 00-6.042 6.042v14.738a6.048 6.048 0 006.042 6.042 6.048 6.048 0 006.041-6.042v-14.738a6.048 6.048 0 00-6.041-6.042z" data-color="2"></path>
        <path fill="#000010" d="M111.998 150.056a2 2 0 010-4 5.348 5.348 0 005.342-5.342V93.187c0-11.99-9.754-21.744-21.744-21.744s-21.744 9.754-21.744 21.744v47.526a5.348 5.348 0 005.341 5.342 2 2 0 010 4c-5.15 0-9.341-4.19-9.341-9.342V93.187c0-14.195 11.549-25.744 25.744-25.744s25.744 11.549 25.744 25.744v47.526c0 5.152-4.191 9.343-9.342 9.343z" data-color="2"></path>
        <path fill="#000010" d="M95.596 63.907c-5.671 0-10.285-4.613-10.285-10.284s4.614-10.285 10.285-10.285 10.284 4.614 10.284 10.285-4.613 10.284-10.284 10.284zm0-16.569a6.292 6.292 0 00-6.285 6.285 6.291 6.291 0 006.285 6.284 6.291 6.291 0 006.284-6.284 6.291 6.291 0 00-6.284-6.285z" data-color="2"></path>
        <path fill="#000010" d="M119.464 55.623h-9.711a2 2 0 010-4h9.711a2 2 0 010 4z" data-color="2"></path>
        <path fill="#000010" d="M81.438 55.623h-9.711a2 2 0 010-4h9.711a2 2 0 010 4z" data-color="2"></path>
    </g>
</svg>